<svg width="11" height="13" viewBox="0 0 11 13" fill="none" xmlns="http://www.w3.org/2000/svg">
<path d="M9.375 2C9.67969 2 9.9375 2.11719 10.1719 2.32812C10.3828 2.5625 10.5 2.82031 10.5 3.125V11.375C10.5 11.7031 10.3828 11.9609 10.1719 12.1719C9.9375 12.4062 9.67969 12.5 9.375 12.5H1.125C0.796875 12.5 0.539062 12.4062 0.328125 12.1719C0.09375 11.9609 0 11.7031 0 11.375V3.125C0 2.82031 0.09375 2.5625 0.328125 2.32812C0.539062 2.11719 0.796875 2 1.125 2H2.25V0.78125C2.25 0.710938 2.27344 0.640625 2.32031 0.59375C2.36719 0.546875 2.4375 0.5 2.53125 0.5H3.46875C3.53906 0.5 3.60938 0.546875 3.65625 0.59375C3.70312 0.640625 3.75 0.710938 3.75 0.78125V2H6.75V0.78125C6.75 0.710938 6.77344 0.640625 6.82031 0.59375C6.86719 0.546875 6.9375 0.5 7.03125 0.5H7.96875C8.03906 0.5 8.10938 0.546875 8.15625 0.59375C8.20312 0.640625 8.25 0.710938 8.25 0.78125V2H9.375ZM9.23438 11.375C9.25781 11.375 9.28125 11.375 9.32812 11.3281C9.35156 11.3047 9.375 11.2812 9.375 11.2344V4.25H1.125V11.2344C1.125 11.2812 1.125 11.3047 1.17188 11.3281C1.19531 11.375 1.21875 11.375 1.26562 11.375H9.23438Z" fill="#E8F0FC"/>
</svg>
