<svg width="20" height="21" viewBox="0 0 20 21" fill="none" xmlns="http://www.w3.org/2000/svg">
<path d="M19.2578 1.47656C19.4922 1.51562 19.6484 1.63281 19.8047 1.78906C19.9219 1.98438 20 2.17969 20 2.375C20 5.65625 19.1797 8.70312 17.5391 11.5156C15.8984 14.25 13.75 16.4375 11.0156 18.0391C8.20312 19.6797 5.15625 20.5 1.875 20.5C1.64062 20.5 1.44531 20.4609 1.28906 20.3047C1.09375 20.1875 0.976562 19.9922 0.976562 19.7578L0.0390625 15.6953C-0.0390625 15.5 0 15.3047 0.117188 15.0703C0.195312 14.875 0.351562 14.7188 0.585938 14.6406L4.96094 12.7656C5.11719 12.6875 5.3125 12.6875 5.54688 12.7266C5.74219 12.7656 5.89844 12.8828 6.05469 13.0391L7.96875 15.3828C9.49219 14.6797 10.8594 13.7422 12.0312 12.5312C13.2031 11.3594 14.1797 9.99219 14.8828 8.46875L12.5391 6.51562C12.3828 6.39844 12.2656 6.24219 12.2266 6.04688C12.1484 5.85156 12.1875 5.65625 12.2656 5.42188L14.1406 1.04688C14.2188 0.890625 14.3359 0.734375 14.5703 0.617188C14.7656 0.539062 14.9609 0.5 15.1953 0.539062L19.2578 1.47656Z" fill="#F6F4F3"/>
</svg>
