<svg width="18" height="19" viewBox="0 0 18 19" fill="none" xmlns="http://www.w3.org/2000/svg">
<path d="M16.5625 11.2188C16.6797 10.6719 16.7578 10.0859 16.7578 9.5C16.7578 5.08594 13.1641 1.49219 8.75 1.49219C8.16406 1.49219 7.57812 1.57031 7.03125 1.6875C6.28906 1.10156 5.35156 0.75 4.375 0.75C1.95312 0.75 0 2.74219 0 5.125C0 6.14062 0.3125 7.07812 0.898438 7.82031C0.78125 8.36719 0.703125 8.95312 0.703125 9.5C0.703125 13.9531 4.29688 17.5469 8.71094 17.5469C9.29688 17.5469 9.88281 17.4688 10.4297 17.3516C11.1719 17.9375 12.1094 18.25 13.0859 18.25C15.5078 18.25 17.4609 16.2969 17.4609 13.875C17.5 12.8984 17.1484 11.9609 16.5625 11.2188ZM8.98438 14.8125C6.40625 14.8125 4.25781 13.6797 4.25781 12.2734C4.25781 11.6484 4.60938 11.0625 5.42969 11.0625C6.64062 11.0625 6.75781 12.8203 8.86719 12.8203C9.84375 12.8203 10.5078 12.3906 10.5078 11.8047C10.5078 11.0625 9.88281 10.9453 8.86719 10.7109C6.44531 10.0859 4.25781 9.85156 4.25781 7.3125C4.25781 4.96875 6.5625 4.10938 8.51562 4.10938C10.6641 4.10938 12.8516 4.96875 12.8516 6.29688C12.8516 6.96094 12.4219 7.54688 11.6797 7.54688C10.5859 7.54688 10.5469 6.21875 8.75 6.21875C7.73438 6.21875 7.10938 6.49219 7.10938 7.11719C7.10938 7.85938 7.92969 7.9375 9.80469 8.40625C11.4062 8.75781 13.3594 9.42188 13.3594 11.4141C13.3594 13.7188 11.1328 14.8125 8.98438 14.8125Z" fill="#F6F4F3"/>
</svg>
