<svg width="29" height="22" viewBox="0 0 29 22" fill="none" xmlns="http://www.w3.org/2000/svg">
<g clip-path="url(#clip0_22_8)">
<path d="M27.9856 8.37657C27.9856 7.77487 27.9376 6.99005 27.8417 6.04825C27.7698 5.10646 27.6499 4.26931 27.506 3.53681C27.3381 2.69966 26.9784 2.01948 26.4268 1.44394C25.8753 0.868398 25.2278 0.554468 24.4844 0.449824C22.1822 0.162054 18.681 0.03125 14.0048 0.03125C9.32853 0.03125 5.82734 0.162054 3.52518 0.449824C2.78177 0.554468 2.13429 0.868398 1.58273 1.44394C1.03117 2.01948 0.671463 2.69966 0.503597 3.53681C0.335731 4.26931 0.239808 5.10646 0.143885 6.04825C0.0719424 6.99005 0.0239808 7.77487 0 8.37657C0 9.00444 0 9.84159 0 10.9403C0 12.0391 0 12.8762 0.0239808 13.5041C0.0239808 14.1058 0.0719424 14.8906 0.167866 15.8324C0.215827 16.7742 0.335731 17.6114 0.479616 18.3439C0.647482 19.181 1.00719 19.8612 1.55875 20.4367C2.11031 21.0123 2.75779 21.3262 3.5012 21.4309C5.80336 21.7186 9.30455 21.8494 13.9808 21.8494C18.6571 21.8494 22.1583 21.7186 24.4604 21.4309C25.2038 21.3524 25.8513 21.0123 26.4029 20.4367C26.9544 19.8612 27.3141 19.181 27.482 18.3439C27.6499 17.6114 27.7458 16.7742 27.8417 15.8324C27.9137 14.8906 27.9616 14.1058 27.9856 13.5041C27.9856 12.9024 28.0096 12.0391 28.0096 10.9403C28.0096 9.84159 28.0096 9.00444 27.9856 8.37657ZM19.5444 11.856L11.5348 17.3236C11.3909 17.4282 11.223 17.5067 11.0072 17.5067C10.8393 17.5067 10.6954 17.4544 10.5276 17.3759C10.1918 17.1666 10 16.8527 10 16.408V5.49888C10 5.05414 10.1679 4.74021 10.5276 4.53092C10.8873 4.32164 11.223 4.3478 11.5348 4.55708L15.5396 7.2909L19.5444 10.0247C19.8561 10.2078 20.024 10.5218 20.024 10.9403C20 11.3589 19.8561 11.6728 19.5444 11.856Z" fill="white"/>
</g>
<defs>
<clipPath id="clip0_22_8">
<rect width="28.0096" height="21.8182" fill="white" transform="translate(0 0.03125)"/>
</clipPath>
</defs>
</svg>
