<svg width="22" height="24" viewBox="0 0 22 24" fill="none" xmlns="http://www.w3.org/2000/svg">
<path d="M15.9305 0H6.06953C2.71746 0 0 2.9645 0 6.6213V17.3787C0 21.0355 2.71746 24 6.06953 24H15.9305C19.2825 24 22 21.0355 22 17.3787V6.6213C22 2.9645 19.2825 0 15.9305 0ZM20.0473 17.3787C20.0473 19.8639 18.1923 21.8698 15.9305 21.8698H6.06953C3.79142 21.8698 1.95266 19.8462 1.95266 17.3787V6.6213C1.95266 4.15385 3.80769 2.13018 6.06953 2.13018H15.9305C18.2086 2.13018 20.0473 4.15385 20.0473 6.6213V17.3787Z" fill="white"/>
<path d="M11 5.82227C7.87572 5.82227 5.32098 8.5915 5.32098 11.9998C5.32098 15.4081 7.85945 18.195 11 18.195C14.1242 18.195 16.679 15.4258 16.679 11.9998C16.679 8.5915 14.1242 5.82227 11 5.82227ZM11 16.0649C8.94968 16.0649 7.27365 14.2542 7.27365 12.0175C7.28992 9.76309 8.94968 7.95244 11 7.95244C13.0503 7.95244 14.7263 9.76309 14.7263 11.9998C14.7263 14.2365 13.0503 16.0649 11 16.0649Z" fill="white"/>
<path d="M16.9068 4.01172C16.5325 4.01172 16.1583 4.17148 15.8979 4.47326C15.6376 4.75728 15.4749 5.16557 15.4749 5.57385C15.4749 5.98213 15.6213 6.39042 15.8979 6.67444C16.1583 6.95847 16.5325 7.13598 16.9068 7.13598C17.2811 7.13598 17.6553 6.97622 17.9157 6.67444C18.176 6.39042 18.3388 5.98213 18.3388 5.57385C18.3388 5.16557 18.1923 4.75728 17.9157 4.47326C17.6553 4.17148 17.2973 4.01172 16.9068 4.01172Z" fill="white"/>
</svg>
