<svg width="25" height="22" viewBox="0 0 25 22" fill="none" xmlns="http://www.w3.org/2000/svg">
<g clip-path="url(#clip0_22_11)">
<path d="M24.999 2.58993C24.0253 3.03466 23.0273 3.32243 22.0535 3.45324C23.1733 2.74689 23.9036 1.72662 24.3174 0.418574C23.295 1.04644 22.1996 1.49117 21.0555 1.72662C20.0331 0.57554 18.7916 0 17.3067 0C15.8948 0 14.6777 0.549379 13.6796 1.62198C12.6816 2.69457 12.1704 4.00262 12.1704 5.51995C12.1704 5.93852 12.2191 6.3571 12.2921 6.77567C10.1986 6.67103 8.22686 6.09549 6.40116 5.07521C4.57545 4.05494 3.01751 2.69457 1.72735 1.02027C1.26484 1.88358 1.02141 2.79922 1.02141 3.79333C1.02141 4.73512 1.21615 5.62459 1.62998 6.40942C2.0438 7.22041 2.60369 7.87443 3.28528 8.37149C2.45763 8.34532 1.67866 8.10988 0.972723 7.66514V7.74362C0.972723 9.07783 1.36221 10.2289 2.14118 11.2492C2.92014 12.2433 3.89385 12.8973 5.08665 13.1589C4.64848 13.2897 4.18597 13.3421 3.7478 13.3421C3.45568 13.3421 3.13923 13.3159 2.77409 13.2636C3.09054 14.3623 3.69911 15.278 4.57545 15.9843C5.45179 16.6906 6.44984 17.0569 7.56961 17.0831C5.71956 18.6527 3.5774 19.4375 1.21615 19.4375C0.753638 19.4375 0.339812 19.4114 -0.0253296 19.3591C2.36026 21.0072 4.98928 21.8182 7.83738 21.8182C9.66308 21.8182 11.3671 21.5043 12.9737 20.9026C14.5803 20.2747 15.9435 19.4637 17.0633 18.4173C18.183 17.3708 19.1811 16.1674 19.9844 14.8332C20.8121 13.4729 21.4206 12.0602 21.8101 10.5952C22.1996 9.13015 22.4187 7.63898 22.4187 6.17397C22.4187 5.86004 22.4187 5.62459 22.3943 5.46763C23.4411 4.65664 24.2931 3.71485 24.999 2.58993Z" fill="white"/>
</g>
<defs>
<clipPath id="clip0_22_11">
<rect width="25" height="21.8182" fill="white"/>
</clipPath>
</defs>
</svg>
